<?xml version="1.0" encoding="utf-8"?>
<!-- Generator: Adobe Illustrator 15.0.0, SVG Export Plug-In . SVG Version: 6.00 Build 0)  -->
<!DOCTYPE svg PUBLIC "-//W3C//DTD SVG 1.1//EN" "http://www.w3.org/Graphics/SVG/1.1/DTD/svg11.dtd">
<svg version="1.1" id="Layer_1" xmlns="http://www.w3.org/2000/svg" xmlns:xlink="http://www.w3.org/1999/xlink" x="0px" y="0px"
	 width="200.12px" height="69.154px" viewBox="0 0 200.12 69.154" enable-background="new 0 0 200.12 69.154" xml:space="preserve">
<g>
	<path fill="#D5B480" d="M28.102,45.208h0.145L33.575,9.42h11.018v50.404h-7.489V23.678h-0.144L31.63,59.825h-7.488l-5.761-35.643
		h-0.144v35.643h-6.913V9.42h11.018L28.102,45.208z"/>
	<path fill="#D5B480" d="M75.982,59.825H67.99l-1.368-9.145H56.9l-1.368,9.145h-7.272L56.325,9.42h11.593L75.982,59.825z
		 M57.909,43.839h7.633l-3.745-25.49h-0.144L57.909,43.839z"/>
	<path fill="#D5B480" d="M90.021,39.735l-2.448,4.608v15.481h-7.921V9.42h7.921v21.818h0.144L97.942,9.42h7.92L94.845,31.886
		l11.017,27.938h-8.137L90.021,39.735z"/>
	<path fill="#D5B480" d="M117.379,30.662h10.873v7.201h-10.873v14.761h13.682v7.201h-21.602V9.42h21.602v7.201h-13.682V30.662z"/>
	<path fill="#D5B480" d="M137.539,53.992v5.833h-1.584v-5.833H137.539z"/>
	<path fill="#D5B480" d="M153.307,9.42c7.488,0,10.368,4.392,10.368,11.305v4.537c0,6.192-2.448,9.577-7.992,10.585
		c5.616,0.864,7.992,4.536,7.992,10.081v7.92c0,1.944,0.217,4.393,1.368,5.977h-1.728c-1.009-1.584-1.225-3.816-1.225-5.977v-7.92
		c0-7.417-4.464-9.361-11.017-9.361h-6.192v23.258h-1.584V9.42H153.307z M151.075,35.055c6.984,0,11.017-1.8,11.017-9.577v-4.608
		c0-6.12-2.376-9.937-8.856-9.937h-8.353v24.122H151.075z"/>
	<path fill="#D5B480" d="M191.54,21.589v0.936h-1.585v-1.008c0-5.977-2.231-11.017-8.784-11.017c-6.625,0-8.856,4.968-8.856,10.945
		c0,12.889,19.297,12.529,19.297,26.21c0,6.984-2.88,12.529-10.585,12.529c-7.632,0-10.513-5.544-10.513-12.529v-2.448h1.513v2.52
		c0,6.121,2.376,10.945,9,10.945c6.625,0,9.001-4.824,9.001-10.945c0-12.745-19.298-12.313-19.298-26.21
		c0-7.345,3.097-12.385,10.369-12.457C188.731,9.061,191.54,14.677,191.54,21.589z"/>
</g>
</svg>
